<svg width="125" height="125" viewBox="0 0 125 125" fill="none" xmlns="http://www.w3.org/2000/svg">
<path d="M62.5 0.984375C28.5258 0.984375 0.984375 28.5258 0.984375 62.5C0.984375 96.4742 28.5258 124.016 62.5 124.016C96.4742 124.016 124.016 96.4742 124.016 62.5C124.016 28.5258 96.4742 0.984375 62.5 0.984375ZM62.5 12.8906C89.9171 12.8906 112.109 35.0787 112.109 62.5C112.109 89.9171 89.9213 112.109 62.5 112.109C35.0829 112.109 12.8906 89.9213 12.8906 62.5C12.8906 35.0829 35.0787 12.8906 62.5 12.8906ZM97.2772 45.2029L91.6872 39.5678C90.5295 38.4008 88.6449 38.3931 87.4778 39.551L52.4159 74.3311L37.5847 59.3796C36.427 58.2125 34.5424 58.2048 33.3753 59.3625L27.74 64.9524C26.5729 66.1101 26.5652 67.9947 27.7231 69.162L50.241 91.8623C51.3987 93.0294 53.2833 93.037 54.4504 91.8792L97.2605 49.4126C98.4274 48.2547 98.4348 46.37 97.2772 45.2029Z" fill="black"/>
</svg>
