<svg width="127" height="127" viewBox="0 0 127 127" fill="none" xmlns="http://www.w3.org/2000/svg">
<path d="M63.5 1.98438C29.5258 1.98438 1.98438 29.5258 1.98438 63.5C1.98438 97.4742 29.5258 125.016 63.5 125.016C97.4742 125.016 125.016 97.4742 125.016 63.5C125.016 29.5258 97.4742 1.98438 63.5 1.98438ZM63.5 13.8906C90.9171 13.8906 113.109 36.0787 113.109 63.5C113.109 90.9171 90.9213 113.109 63.5 113.109C36.0829 113.109 13.8906 90.9213 13.8906 63.5C13.8906 36.0829 36.0787 13.8906 63.5 13.8906ZM98.2772 46.2029L92.6872 40.5678C91.5295 39.4008 89.6449 39.3931 88.4778 40.551L53.4159 75.3311L38.5847 60.3796C37.427 59.2125 35.5424 59.2048 34.3753 60.3625L28.74 65.9524C27.5729 67.1101 27.5652 68.9947 28.7231 70.162L51.241 92.8623C52.3987 94.0294 54.2833 94.037 55.4504 92.8792L98.2605 50.4126C99.4274 49.2547 99.4348 47.37 98.2772 46.2029Z" fill="#005DA1"/>
</svg>
